HIERARCHY
ROOT Hips
{
	OFFSET 0.000000 8.830580 0.000000
	CHANNELS 6 Xposition Yposition Zposition Zrotation Yrotation Xrotation 
	JOINT Spine
	{
		OFFSET 0.000000 0.010000 0.000000
		CHANNELS 3 Zrotation Yrotation Xrotation
		JOINT Spine1
		{
			OFFSET 0.000000 2.459130 0.000000
			CHANNELS 3 Zrotation Yrotation Xrotation
			JOINT Neck
			{
				OFFSET 0.000000 2.484630 0.000000
				CHANNELS 3 Zrotation Yrotation Xrotation
				JOINT Head_virtual
				{
					OFFSET 0.000000 0.000000 0.000000
					CHANNELS 3 Zrotation Yrotation Xrotation
					JOINT Head
					{
						OFFSET 0.000000 0.927525 0.000000
						CHANNELS 3 Zrotation Yrotation Xrotation
						End Site
						{
							OFFSET 0.000000 0.000000 0.000000
						}
					}
				}
				JOINT LeftUpArm_virtual
				{
					OFFSET 0.000000 0.000000 0.000000
					CHANNELS 3 Zrotation Yrotation Xrotation
					JOINT LeftUpArm
					{
						OFFSET 1.248820 0.000000 0.000000
						CHANNELS 3 Zrotation Yrotation Xrotation
						JOINT LeftForeArm
						{
							OFFSET 2.597580 0.000000 0.000000
							CHANNELS 3 Zrotation Yrotation Xrotation
							JOINT LeftHand
							{
								OFFSET 2.455420 0.000000 0.000000
								CHANNELS 3 Zrotation Yrotation Xrotation
								End Site
								{
									OFFSET 0.000000 0.000000 0.000000
								}
							}
						}
					}
				}
				JOINT RightUpArm_virtual
				{
					OFFSET -0.000000 -0.000000 -0.000000
					CHANNELS 3 Zrotation Yrotation Xrotation
					JOINT RightUpArm
					{
						OFFSET -1.248820 -0.000000 -0.000000
						CHANNELS 3 Zrotation Yrotation Xrotation
						JOINT RightForeArm
						{
							OFFSET -2.597580 -0.000000 -0.000000
							CHANNELS 3 Zrotation Yrotation Xrotation
							JOINT RightHand
							{
								OFFSET -2.455420 -0.000000 -0.000000
								CHANNELS 3 Zrotation Yrotation Xrotation
								End Site
								{
									OFFSET 0.000000 0.000000 0.000000
								}
							}
						}
					}
				}
			}
		}
	}
	JOINT LeftUpLeg
	{
		OFFSET 1.271939 0.000000 0.000000
		CHANNELS 3 Zrotation Yrotation Xrotation
		JOINT LeftLowLeg
		{
			OFFSET 0.000000 -4.342910 0.000000
			CHANNELS 3 Zrotation Yrotation Xrotation
			JOINT LeftFoot
			{
				OFFSET 0.000000 -4.487670 0.000000
				CHANNELS 3 Zrotation Yrotation Xrotation
				JOINT LeftToeBase
				{
					OFFSET 0.000000 0.000000 1.515070
					CHANNELS 3 Zrotation Yrotation Xrotation
					End Site
					{
						OFFSET 0.000000 0.000000 0.000000
					}
				}
			}
		}
	}
	JOINT RightUpLeg
	{
		OFFSET -1.271939 0.000000 0.000000
		CHANNELS 3 Zrotation Yrotation Xrotation
		JOINT RightLowLeg
		{
			OFFSET 0.000000 -4.342910 0.000000
			CHANNELS 3 Zrotation Yrotation Xrotation
			JOINT RightFoot
			{
				OFFSET 0.000000 -4.487670 0.000000
				CHANNELS 3 Zrotation Yrotation Xrotation
				JOINT RightToeBase
				{
					OFFSET 0.000000 0.000000 1.515070
					CHANNELS 3 Zrotation Yrotation Xrotation
					End Site
					{
						OFFSET 0.000000 0.000000 0.000000
					}
				}
			}
		}
	}
}
MOTION
Frames: 16
Frame Time: 0.041667
-15.569562 8.981661 37.909151 -177.240696 -6.300501 -159.139074 6.965244 0.813635 -28.265706 -5.345439 -1.584790 5.295742 0.000000 0.000000 0.000000 15.666509 6.807128 -7.991179 -7.141611 -4.990513 -77.926051 -29.038000 -1.022870 7.894930 -45.398201 -1.861750 16.890991 0.000000 -8.682430 0.000000 -4.333720 16.930700 28.740101 30.618099 -4.472880 -0.283786 47.175098 -4.151540 27.976700 0.000000 19.009899 0.000000 0.956773 -8.390440 -7.347750 5.788429 -17.293848 -19.752125 0.000000 0.000000 5.868140 0.128239 21.795049 -2.901569 0.000000 0.000000 -11.887230 -0.795615 27.813145 -19.078608 0.000000 0.000000 3.625260 3.667097 -29.331028 2.050337 0.000000 0.000000 -17.567700 
-15.568532 8.982728 37.913769 -177.202577 -6.416665 -159.158388 6.939196 0.751121 -28.054923 -5.100868 -1.621863 5.237734 0.000000 0.000000 0.000000 15.754546 6.681154 -8.368653 -7.123359 -5.034695 -78.392617 -29.045500 -0.958339 7.803970 -45.121201 -1.367360 18.920990 0.000000 -9.588990 0.000000 -3.357100 16.127001 27.271400 30.597799 -4.492420 -0.303226 47.191601 -4.035360 27.128901 0.000000 18.473700 0.000000 0.573751 -7.943480 -5.652610 5.866000 -17.335117 -19.833446 0.000000 0.000000 5.951870 0.124085 21.739418 -2.900550 0.000000 0.000000 -11.884880 -0.772047 27.789226 -19.184745 0.000000 0.000000 3.804630 3.935968 -29.245269 1.927915 0.000000 0.000000 -17.618920 
-15.567383 8.982836 37.917393 -177.198787 -6.449257 -159.194005 6.855800 0.695835 -27.846531 -4.813182 -1.565580 5.197115 0.000000 0.000000 0.000000 15.614816 6.695220 -8.701970 -6.910699 -5.076814 -78.889586 -29.088100 -0.924158 7.860190 -44.745998 -0.993125 21.199005 0.000000 -10.617500 0.000000 -1.626620 14.704500 25.871300 30.579700 -4.462230 -0.327976 47.085800 -3.906480 26.740801 0.000000 18.144300 0.000000 0.178151 -7.729730 -4.422230 5.868783 -17.316540 -19.842946 0.000000 0.000000 5.985860 0.124190 21.693616 -2.897366 0.000000 0.000000 -11.876530 -0.790595 27.861175 -19.250451 0.000000 0.000000 3.938570 4.059219 -29.283568 1.841721 0.000000 0.000000 -17.635760 
-15.565552 8.982807 37.921635 -177.190673 -6.542916 -159.251669 6.772409 0.617560 -27.643543 -4.546516 -1.528546 5.175236 0.000000 0.000000 0.000000 15.623284 6.612671 -9.025490 -6.863782 -5.114008 -79.252216 -29.160601 -0.914990 7.923140 -44.220402 -0.640541 23.591003 0.000000 -11.948700 0.000000 0.496196 13.582300 24.716200 30.589600 -4.542770 -0.113059 46.892399 -3.386850 26.993099 0.000000 17.813499 0.000000 -0.017544 -7.746800 -3.210750 5.901438 -17.347381 -19.864122 0.000000 0.000000 6.048550 0.067841 21.614735 -2.917729 0.000000 0.000000 -11.879130 -0.771188 27.879125 -19.327361 0.000000 0.000000 4.153930 4.260255 -29.280580 1.680797 0.000000 0.000000 -17.621010 
-15.563405 8.983114 37.923810 -177.173203 -6.590526 -159.301475 6.682455 0.564727 -27.526650 -4.265541 -1.434191 5.228283 0.000000 0.000000 0.000000 15.579201 6.553764 -9.294619 -6.718847 -5.179988 -79.615103 -29.261400 -0.915673 7.904700 -43.663502 -0.459549 25.630005 0.000000 -13.153700 0.000000 2.434850 12.791700 23.895700 30.602200 -4.418780 -0.079983 46.668900 -3.229320 27.230900 0.000000 17.610001 0.000000 -0.422182 -7.304260 -2.674820 5.937085 -17.368871 -19.843890 0.000000 0.000000 6.054550 0.054011 21.583652 -2.912691 0.000000 0.000000 -11.883320 -0.783002 27.965913 -19.456649 0.000000 0.000000 4.453430 4.614168 -29.214708 1.438400 0.000000 0.000000 -17.628020 
-15.566878 8.981708 37.927119 -177.261543 -6.648416 -159.269638 6.624262 0.594614 -27.456002 -4.156891 -1.324271 5.264970 0.000000 0.000000 0.000000 15.458907 6.481143 -9.669073 -6.542550 -5.223625 -79.786219 -29.281200 -0.896660 7.857860 -43.171200 -0.471198 27.759003 0.000000 -14.308600 0.000000 4.392380 12.132700 23.359900 30.551500 -4.252690 -0.106231 46.487400 -3.208890 27.634701 0.000000 17.611300 0.000000 -0.648185 -7.260480 -1.514710 5.891776 -17.540843 -19.926188 0.000000 0.000000 6.085670 0.072559 21.693154 -2.883687 0.000000 0.000000 -11.879980 -0.675518 27.556069 -18.997524 0.000000 0.000000 3.604950 3.687489 -29.402480 2.064864 0.000000 0.000000 -17.556970 
-15.566271 8.981866 37.929465 -177.252917 -6.722464 -159.247886 6.588035 0.631775 -27.417407 -4.032950 -1.227826 5.322055 0.000000 0.000000 0.000000 15.450771 6.436775 -9.948448 -6.493082 -5.213673 -79.979714 -29.297501 -0.867888 7.783160 -42.655800 -0.618886 29.303009 0.000000 -15.409400 0.000000 5.818540 11.745100 22.836000 30.580200 -4.053600 -0.187040 46.259800 -3.215970 27.973400 0.000000 17.625900 0.000000 -0.709542 -7.218220 -0.645144 5.961740 -17.641329 -19.988624 0.000000 0.000000 6.085310 0.065965 21.719926 -2.866568 0.000000 0.000000 -11.880970 -0.686082 27.555824 -19.067841 0.000000 0.000000 3.660310 3.782911 -29.418251 2.013859 0.000000 0.000000 -17.572610 
-15.566950 8.981730 37.938201 -177.276153 -6.671021 -159.188544 6.615916 0.827770 -26.906833 -4.147427 -1.280705 4.604103 0.000000 0.000000 0.000000 15.600664 6.407846 -9.950735 -6.562313 -5.201491 -80.119460 -29.313000 -0.542400 7.918120 -42.071499 -0.930921 30.576996 0.000000 -16.380199 0.000000 6.815040 11.270400 22.720301 30.706800 -3.777520 -0.037867 46.002701 -3.449760 28.129200 0.000000 17.763500 0.000000 -0.839856 -7.083780 0.495955 5.946022 -17.597799 -20.108563 0.000000 0.000000 6.116120 0.032031 21.706776 -2.852633 0.000000 0.000000 -11.858860 -0.822856 27.632297 -19.251789 0.000000 0.000000 3.744070 3.935895 -29.395398 1.929722 0.000000 0.000000 -17.580740 
-15.566808 8.981873 37.942966 -177.271325 -6.765154 -159.209233 6.635657 0.967451 -26.608692 -4.230622 -1.294206 4.200433 0.000000 0.000000 0.000000 15.785964 6.371668 -9.823852 -6.577660 -5.237896 -80.280243 -29.266899 -0.503952 8.136210 -41.620998 -1.324990 31.420990 0.000000 -17.242201 0.000000 7.288760 11.133100 22.309299 30.805799 -3.692870 0.352314 45.819500 -3.207720 28.169001 0.000000 17.801600 0.000000 -0.754752 -7.044430 0.659142 5.996753 -17.678657 -20.134029 0.000000 0.000000 6.099570 -0.001109 21.672712 -2.828819 0.000000 0.000000 -11.858200 -0.778490 27.526463 -19.253395 0.000000 0.000000 3.766400 3.969310 -29.367428 1.914272 0.000000 0.000000 -17.542170 
-15.566529 8.982423 37.944766 -177.254857 -6.850235 -159.235198 6.587979 1.011777 -26.541562 -4.107381 -1.192775 4.196431 0.000000 0.000000 0.000000 15.754804 6.368334 -9.946547 -6.437547 -5.244344 -80.372687 -29.330200 -0.552142 8.131730 -41.233299 -1.790100 32.019989 0.000000 -17.952101 0.000000 7.472600 10.934600 22.352301 30.784599 -3.650780 0.384990 45.688202 -2.988420 28.360600 0.000000 17.858500 0.000000 -0.830078 -7.077620 0.613878 6.039820 -17.705772 -20.086292 0.000000 0.000000 5.994790 -0.071295 21.575441 -2.802608 0.000000 0.000000 -11.838490 -0.711890 27.435247 -19.234321 0.000000 0.000000 3.789660 3.960026 -29.353594 1.937765 0.000000 0.000000 -17.560530 
-15.565167 8.982992 37.948060 -177.222748 -6.912447 -159.286640 6.523802 1.050773 -26.419387 -3.944401 -1.081280 4.184787 0.000000 0.000000 0.000000 15.720601 6.383164 -10.102603 -6.349355 -5.213063 -80.458889 -29.395000 -0.655949 8.127640 -41.028099 -2.381360 31.872986 0.000000 -18.374800 0.000000 7.144900 10.947300 22.065201 30.734400 -3.610500 0.376673 45.617001 -2.734420 28.511000 0.000000 17.799900 0.000000 -0.936480 -6.795780 0.996002 6.052586 -17.581869 -19.977854 0.000000 0.000000 5.836720 -0.195635 21.323750 -2.791222 0.000000 0.000000 -11.775420 -0.636174 27.389208 -19.237969 0.000000 0.000000 3.869930 3.927650 -29.368550 1.974773 0.000000 0.000000 -17.598420 
-15.563161 8.983580 37.952885 -177.183306 -6.989862 -159.374482 6.485866 1.097719 -26.230582 -3.852255 -1.019507 4.129605 0.000000 0.000000 0.000000 15.975602 6.278425 -10.273771 -6.525778 -5.137729 -80.429526 -29.432600 -0.781410 8.168610 -40.903702 -3.043460 31.572998 0.000000 -18.626499 0.000000 6.940950 10.891000 22.041901 30.774401 -3.583480 0.485043 45.497101 -2.390010 28.459299 0.000000 17.807301 0.000000 -1.113060 -6.525900 1.542010 6.045099 -17.363455 -19.813246 0.000000 0.000000 5.632940 -0.356950 20.918800 -2.773113 0.000000 0.000000 -11.709820 -0.512973 27.275946 -19.223932 0.000000 0.000000 3.995760 3.923492 -29.310339 1.990277 0.000000 0.000000 -17.617270 
-15.559975 8.984225 37.953316 -177.123557 -6.872327 -159.526048 6.405503 1.152463 -26.083074 -3.651888 -0.861778 4.218868 0.000000 0.000000 0.000000 16.062135 6.245311 -10.468811 -6.573102 -5.062959 -80.416181 -29.483400 -0.938887 8.186810 -40.899601 -3.755440 31.117004 0.000000 -18.755301 0.000000 6.671990 10.950200 21.883900 30.761999 -3.529320 0.518877 45.439499 -2.023130 28.297600 0.000000 17.795099 0.000000 -1.301370 -6.385060 1.797850 5.999386 -17.059239 -19.416170 0.000000 0.000000 5.230890 -0.580446 20.557657 -2.751649 0.000000 0.000000 -11.630380 -0.410859 27.389924 -19.157912 0.000000 0.000000 4.131480 3.873418 -29.304673 2.041319 0.000000 0.000000 -17.625090 
-15.554736 8.984890 37.954631 -177.035885 -6.756925 -159.731457 6.325720 1.164229 -25.875236 -3.400295 -0.747522 4.321359 0.000000 0.000000 0.000000 16.042703 6.268748 -10.640115 -6.558557 -4.992355 -80.448466 -29.569401 -1.100300 8.252930 -40.905800 -4.536550 30.786011 0.000000 -18.840700 0.000000 6.653520 11.010900 21.836100 30.738001 -3.442730 0.554524 45.372200 -1.659170 28.168900 0.000000 17.850300 0.000000 -1.540720 -6.087580 2.229820 5.974067 -16.688029 -18.985187 0.000000 0.000000 4.869850 -0.941801 20.063522 -2.807078 0.000000 0.000000 -11.563860 -0.253716 27.531332 -19.049038 0.000000 0.000000 4.277790 3.829565 -29.308317 2.109523 0.000000 0.000000 -17.664380 
-15.548957 8.986101 37.959104 -176.963039 -6.633697 -159.837435 6.243764 1.145143 -25.688604 -3.134061 -0.660734 4.364741 0.000000 0.000000 0.000000 16.019297 6.304760 -10.793789 -6.652046 -4.909096 -80.525892 -29.681499 -1.272880 8.348190 -40.995602 -5.398280 30.233002 0.000000 -18.715000 0.000000 6.688470 10.941600 22.041000 30.699800 -3.353060 0.565551 45.355099 -1.246870 28.038900 0.000000 17.835800 0.000000 -1.854620 -5.906400 2.481220 6.021904 -16.470620 -18.716838 0.000000 0.000000 4.558980 -1.321122 19.730987 -2.841664 0.000000 0.000000 -11.481560 -0.161003 27.618441 -19.104531 0.000000 0.000000 4.501460 3.844989 -29.221892 2.144641 0.000000 0.000000 -17.689270 
-15.541665 8.987338 37.963923 -176.902184 -6.538766 -159.989568 6.173297 1.105417 -25.397862 -2.914435 -0.638828 4.318919 0.000000 0.000000 0.000000 16.058786 6.309488 -10.918952 -6.738299 -4.845183 -80.590267 -29.779499 -1.469190 8.445880 -41.119701 -6.190240 29.613007 0.000000 -18.599199 0.000000 6.893590 10.945400 22.412901 30.707300 -3.279510 0.604504 45.314301 -0.842866 27.825100 0.000000 17.907000 0.000000 -2.111060 -5.831570 2.637050 6.043801 -16.236874 -18.459176 0.000000 0.000000 4.352230 -1.661081 19.394999 -2.886852 0.000000 0.000000 -11.431510 -0.022897 27.638899 -19.110641 0.000000 0.000000 4.747440 3.886939 -29.089945 2.150584 0.000000 0.000000 -17.693860 
